<?xml version="1.0" encoding="iso-8859-1"?>
<svg xmlns="http://www.w3.org/2000/svg" xmlns:xlink="http://www.w3.org/1999/xlink" version="1.1" viewBox="0 0 43.952 43.952" enable-background="new 0 0 43.952 43.952" width="512px" height="512px">
  <path d="m20.176,.076c-12.1,1-21.1,11.6-20.1,23.7 1,12.1 11.6,21.1 23.7,20.1s21.1-11.6 20.1-23.7c-1-12.1-11.6-21.1-23.7-20.1zm.7,33c0,0.5-0.4,1-0.9,1.1l-2,.2c-0.5,0-1-0.4-1.1-0.9l-1.1-13.5c0-0.4-0.6-0.6-0.9-0.3l-1.9,2.2c-0.2,0.2-0.4,0.3-0.7,0.3s-0.5-0.1-0.7-0.2l-1.5-1.3c-0.2-0.2-0.3-0.4-0.4-0.7 0-0.3 0.1-0.5 0.2-0.7l7.3-8.6c0.2-0.2 0.4-0.3 0.7-0.3s0.5,0.1 0.7,0.2c0.2,0.2 0.3,0.4 0.3,0.7l2,21.8zm13.1-8.4l-7.3,8.6c-0.2,0.2-0.4,0.3-0.7,0.3s-0.5-0.1-0.7-0.2c-0.2-0.2-0.3-0.4-0.3-0.7l-1.8-21.9c0-0.5 0.4-1 0.9-1.1l2-.2c0.5,0 1,0.4 1.1,0.9l1.1,13.5c0,0.4 0.6,0.6 0.9,0.3l1.9-2.2c0.2-0.2 0.4-0.3 0.7-0.3s0.5,0.1 0.7,0.2l1.5,1.3c0.2,0.2 0.3,0.4 0.4,0.7-0.2,0.4-0.3,0.6-0.4,0.8z" fill="#016562"/>
</svg>
